<?xml version="1.0" encoding="UTF-8"?>
<svg id="Layer_1" xmlns="http://www.w3.org/2000/svg" version="1.1" viewBox="0 0 640 694">
  <!-- Generator: Adobe Illustrator 29.6.1, SVG Export Plug-In . SVG Version: 2.1.1 Build 9)  -->
  <path d="M344.01,572l-1.52-29.01c-7.59,2.26-57.68,30.38-60.51,28.59-6.25-3.96-6.97-46.58-1.02-54.1-.11-1.23-9.24-2.77-11.47-3.47-39.24-12.25-86.77-42.53-80.37-89.4,8.39-61.39,62.91-102.29,121.7-110.3l31.18-3.3c-66.88-23.66-126.87-66.25-164.41-127.1-22.25-36.06-36.43-77.15-43.58-118.91.98-1.08,23.19,12.39,25.67,13.82,46.07,26.74,84.77,51.54,119.3,92.7,26.12,31.13,51.96,66.53,74.84,100.16,9.28,13.63,17.79,27.77,27.17,41.32-.09-1.92-.96-3.39-1.06-5.43-2.19-48.64-.68-98.76,16.32-144.81s52.22-86.06,89.74-118.75c.89,27.72,1.89,55.76,1.05,83.54-1.54,50.8-8.02,108.26-32.52,153.48-9.92,18.31-23.07,34.57-37.5,49.48,8.08,8.16,15.8,17.48,21.5,27.48,22.39,39.28,18.76,86.21,11.17,129.2-1.61,9.13-4.49,27.38-7.71,35.29-2.62,6.43-19.47,15.5-25.95,19.05-22.69,12.41-47.68,21.85-72.01,30.48ZM266.77,356.25c-27.14,3.33-22.3,45.09,5.65,41.66,27.21-3.34,22.32-45.09-5.65-41.66Z"/>
  <polygon points="324.99 563 328 637.99 281.51 603.3 243.01 621 238.01 561 282.49 583.98 324.99 563"/>
  <path d="M344,587l91.62-28.9c1.99-.45,1.18.1,1.36,1.41.68,4.89,1.14,9.93,1.08,14.88l-91.79,29.44c-.81.37-2.28-.98-2.28-1.33v-15.5Z"/>
</svg>